<?xml version="1.0" encoding="utf-8"?>
<!-- Generator: Adobe Illustrator 16.0.0, SVG Export Plug-In . SVG Version: 6.00 Build 0)  -->
<!DOCTYPE svg PUBLIC "-//W3C//DTD SVG 1.1//EN" "http://www.w3.org/Graphics/SVG/1.1/DTD/svg11.dtd">
<svg version="1.1" id="Layer_1" xmlns="http://www.w3.org/2000/svg" xmlns:xlink="http://www.w3.org/1999/xlink" x="0px" y="0px"
	 width="139px" height="49.5px" viewBox="0 0 139 49.5" enable-background="new 0 0 139 49.5" xml:space="preserve">
<g enable-background="new    ">
	<path fill="#FFFFFF" d="M50.552,15.44l1.45-8.202h0.756l-0.252,1.357c0.188-0.188,0.402-0.376,0.641-0.564
		c0.239-0.188,0.491-0.352,0.756-0.492c0.264-0.14,0.535-0.254,0.812-0.343c0.277-0.089,0.545-0.134,0.805-0.134
		c0.717,0,1.251,0.148,1.603,0.446c0.352,0.298,0.552,0.695,0.603,1.194c0.529-0.509,1.067-0.909,1.614-1.202
		c0.547-0.292,1.067-0.438,1.561-0.438c0.468,0,0.856,0.064,1.164,0.194s0.547,0.313,0.717,0.55c0.17,0.237,0.277,0.511,0.32,0.824
		c0.043,0.312,0.032,0.654-0.034,1.026l-1.015,5.783h-0.748L62.32,9.67c0.117-0.626,0.054-1.107-0.187-1.445
		c-0.242-0.339-0.716-0.508-1.423-0.508c-0.478,0-0.958,0.141-1.438,0.424c-0.481,0.282-0.986,0.662-1.515,1.141L56.68,15.44h-0.755
		l1.022-5.769c0.112-0.626,0.048-1.107-0.191-1.445c-0.239-0.339-0.712-0.508-1.419-0.508c-0.503,0-0.992,0.144-1.465,0.431
		c-0.473,0.288-0.969,0.665-1.488,1.134L51.3,15.44H50.552z"/>
	<path fill="#FFFFFF" d="M67.133,15.616c-0.468,0-0.855-0.066-1.164-0.198c-0.308-0.133-0.548-0.315-0.721-0.55
		c-0.173-0.234-0.28-0.508-0.321-0.82c-0.041-0.312-0.03-0.655,0.031-1.026l1.015-5.783h0.748l-1.015,5.769
		c-0.112,0.62-0.048,1.101,0.191,1.441c0.239,0.34,0.712,0.512,1.419,0.512c0.503,0,1.004-0.144,1.503-0.432
		c0.499-0.287,1.01-0.665,1.535-1.133l1.074-6.157h0.748l-1.449,8.202h-0.755l0.251-1.358c-0.188,0.188-0.407,0.375-0.657,0.562
		c-0.249,0.186-0.512,0.35-0.79,0.491c-0.277,0.143-0.556,0.259-0.835,0.348C67.662,15.573,67.393,15.616,67.133,15.616z"/>
	<path fill="#FFFFFF" d="M76.068,15.578c-0.438,0-0.82-0.038-1.148-0.115c-0.328-0.076-0.615-0.186-0.859-0.328
		c-0.244-0.142-0.453-0.313-0.625-0.515c-0.174-0.201-0.319-0.429-0.442-0.683l0.718-0.313c0.168,0.356,0.443,0.662,0.827,0.916
		c0.385,0.255,0.915,0.382,1.592,0.382c0.701,0,1.271-0.133,1.701-0.397c0.433-0.264,0.647-0.704,0.647-1.319
		c0-0.341-0.105-0.615-0.319-0.824s-0.484-0.387-0.812-0.534c-0.328-0.147-0.681-0.283-1.058-0.408s-0.729-0.27-1.058-0.435
		c-0.328-0.166-0.6-0.377-0.812-0.634c-0.214-0.257-0.319-0.594-0.319-1.011c0-0.667,0.233-1.216,0.705-1.648
		c0.471-0.432,1.144-0.648,2.019-0.648c0.401,0,0.757,0.034,1.063,0.103c0.309,0.069,0.578,0.163,0.812,0.283
		c0.232,0.119,0.436,0.257,0.604,0.411c0.168,0.155,0.314,0.327,0.442,0.516l-0.642,0.427c-0.209-0.335-0.512-0.6-0.908-0.793
		c-0.396-0.193-0.879-0.29-1.442-0.29c-0.635,0-1.104,0.148-1.411,0.446c-0.306,0.298-0.457,0.645-0.457,1.042
		c0,0.351,0.106,0.63,0.319,0.839c0.214,0.209,0.481,0.387,0.806,0.534c0.323,0.147,0.674,0.281,1.053,0.4
		c0.379,0.12,0.729,0.262,1.054,0.428c0.323,0.165,0.591,0.379,0.806,0.641c0.213,0.262,0.32,0.606,0.32,1.034
		c0,0.457-0.087,0.846-0.26,1.163c-0.174,0.318-0.404,0.576-0.694,0.774c-0.29,0.198-0.628,0.341-1.015,0.428
		C76.887,15.534,76.484,15.578,76.068,15.578z"/>
	<path fill="#FFFFFF" d="M81.104,15.44l1.457-8.202h0.748l-1.449,8.202H81.104z M82.889,5.14l0.168-0.954h0.816L83.697,5.14H82.889z
		"/>
	<path fill="#FFFFFF" d="M87.65,15.616c-0.459,0-0.866-0.087-1.226-0.26c-0.358-0.173-0.661-0.416-0.911-0.729
		c-0.25-0.312-0.443-0.686-0.58-1.118c-0.138-0.432-0.205-0.908-0.205-1.427c0-0.905,0.135-1.679,0.407-2.319
		c0.271-0.641,0.611-1.16,1.019-1.557c0.406-0.396,0.85-0.687,1.328-0.87s0.926-0.274,1.343-0.274c0.468,0,0.86,0.06,1.179,0.18
		c0.318,0.119,0.586,0.278,0.805,0.477c0.219,0.199,0.392,0.431,0.517,0.698s0.229,0.546,0.315,0.835l-0.709,0.191
		c-0.143-0.596-0.383-1.031-0.721-1.309c-0.339-0.277-0.826-0.416-1.462-0.416c-0.417,0-0.821,0.094-1.213,0.282
		s-0.741,0.464-1.05,0.828c-0.309,0.363-0.553,0.816-0.732,1.358c-0.18,0.541-0.271,1.174-0.271,1.896
		c0,0.885,0.201,1.586,0.6,2.103c0.398,0.516,0.955,0.774,1.668,0.774c0.311,0,0.587-0.037,0.831-0.111
		c0.244-0.073,0.468-0.184,0.672-0.331c0.203-0.147,0.396-0.339,0.579-0.572c0.184-0.234,0.369-0.507,0.559-0.816l0.58,0.297
		c-0.367,0.707-0.812,1.249-1.332,1.626C89.117,15.428,88.454,15.616,87.65,15.616z"/>
	<path fill="#FFFFFF" d="M94.426,15.578c-0.728,0-1.279-0.164-1.656-0.492c-0.375-0.328-0.563-0.752-0.563-1.271
		c0-0.438,0.106-0.857,0.319-1.259c0.216-0.402,0.566-0.765,1.058-1.088c0.492-0.323,1.135-0.596,1.933-0.82
		c0.795-0.224,1.782-0.381,2.963-0.473l0.092-0.504c0.111-0.615,0.041-1.095-0.213-1.438c-0.254-0.343-0.74-0.515-1.457-0.515
		c-0.307,0-0.605,0.039-0.9,0.118s-0.576,0.178-0.844,0.298c-0.268,0.119-0.512,0.256-0.736,0.408s-0.408,0.3-0.557,0.442
		l-0.465-0.496c0.197-0.168,0.418-0.338,0.662-0.511s0.516-0.327,0.812-0.462c0.297-0.135,0.618-0.244,0.962-0.328
		c0.343-0.084,0.72-0.126,1.125-0.126c0.498,0,0.914,0.064,1.248,0.194c0.332,0.13,0.591,0.313,0.772,0.55
		c0.185,0.236,0.299,0.519,0.345,0.847c0.046,0.328,0.039,0.683-0.022,1.064l-0.642,3.693c-0.041,0.229-0.073,0.429-0.099,0.599
		c-0.026,0.171-0.045,0.335-0.055,0.492s-0.013,0.309-0.008,0.454c0.006,0.145,0.018,0.307,0.039,0.484h-0.803
		c-0.021-0.209-0.029-0.409-0.029-0.603s0.02-0.399,0.061-0.618c-0.58,0.438-1.156,0.773-1.731,1.007
		C95.461,15.461,94.924,15.578,94.426,15.578z M94.533,14.922c0.533,0,1.09-0.125,1.666-0.374c0.578-0.249,1.145-0.603,1.697-1.061
		l0.481-2.747c-1.104,0.112-2.008,0.272-2.709,0.48c-0.702,0.209-1.252,0.442-1.647,0.702c-0.396,0.26-0.67,0.543-0.82,0.851
		s-0.225,0.619-0.225,0.935c0,0.372,0.131,0.667,0.396,0.886C93.637,14.812,94.023,14.922,94.533,14.922z"/>
	<path fill="#FFFFFF" d="M100.927,15.44l2.03-11.567h0.755l-2.028,11.567H100.927z"/>
</g>
<g opacity="0.9">
	<path fill="#ABE1E2" d="M23.72,43.007c-1.149,0-2.284-0.202-3.403-0.604c-1.119-0.402-2.116-1.023-2.99-1.861
		c-0.875-0.838-1.581-1.908-2.119-3.211c-0.539-1.305-0.808-2.871-0.808-4.706c0-1.896,0.287-3.501,0.862-4.815
		c0.575-1.313,1.327-2.389,2.257-3.221s1.963-1.428,3.101-1.789c1.138-0.36,2.257-0.541,3.357-0.541
		c1.224,0,2.294,0.156,3.211,0.468c0.918,0.312,1.694,0.737,2.33,1.275c0.636,0.538,1.175,1.159,1.615,1.86
		c0.44,0.703,0.812,1.44,1.119,2.213l-3.908,1.395c-0.783-2.227-2.264-3.34-4.44-3.34c-0.648,0-1.266,0.113-1.853,0.34
		c-0.588,0.229-1.102,0.598-1.542,1.109c-0.439,0.515-0.792,1.184-1.055,2.01c-0.263,0.825-0.395,1.838-0.395,3.036
		c0,2.129,0.413,3.759,1.238,4.892c0.826,1.131,2.003,1.695,3.532,1.695c1.052,0,1.954-0.229,2.706-0.679
		c0.753-0.452,1.404-1.384,1.954-2.789l3.835,1.396c-0.355,0.809-0.777,1.564-1.267,2.274c-0.489,0.709-1.076,1.327-1.761,1.854
		c-0.686,0.524-1.486,0.946-2.403,1.267C25.977,42.848,24.919,43.007,23.72,43.007z"/>
	<path fill="#ABE1E2" d="M68.653,42.879c-0.808,0-1.554-0.109-2.238-0.331c-0.686-0.22-1.278-0.544-1.78-0.972
		c-0.502-0.43-0.896-0.965-1.184-1.605c-0.287-0.643-0.431-1.373-0.431-2.191c0-1.075,0.238-2.066,0.715-2.973
		c0.478-0.906,1.242-1.701,2.294-2.387c1.052-0.686,2.397-1.271,4.036-1.761c1.642-0.489,3.621-0.875,5.945-1.156v-0.587
		c0-1.003-0.264-1.73-0.789-2.184c-0.525-0.455-1.352-0.681-2.478-0.681c-1.406,0-2.666,0.281-3.779,0.845
		c-1.113,0.562-2.092,1.182-2.936,1.854l-2.257-2.881c1.076-0.979,2.428-1.825,4.055-2.541c1.627-0.716,3.479-1.073,5.561-1.073
		c1.32,0,2.439,0.156,3.356,0.468c0.918,0.312,1.657,0.777,2.22,1.395c0.562,0.618,0.971,1.376,1.221,2.274
		c0.25,0.897,0.377,1.922,0.377,3.072v8.237c0,1.198,0.043,2.187,0.129,2.964c0.084,0.775,0.23,1.416,0.438,1.917h-4.66
		c-0.122-0.429-0.229-0.815-0.319-1.165c-0.092-0.35-0.139-0.811-0.139-1.386c-1.027,1.053-2.135,1.788-3.32,2.211
		C71.503,42.668,70.157,42.879,68.653,42.879z M70.341,39.318c1.199,0,2.263-0.207,3.192-0.623c0.929-0.416,1.755-0.973,2.479-1.67
		v-4.403c-2.777,0.38-4.882,0.915-6.312,1.604c-1.432,0.69-2.147,1.588-2.147,2.688c0,0.795,0.251,1.395,0.753,1.798
		C68.806,39.117,69.484,39.318,70.341,39.318z"/>
	<path fill="#ABE1E2" d="M85.717,42.585V22.642h4.66v19.943H85.717z"/>
	<path fill="#ABE1E2" d="M95.734,42.585V22.642h4.623v3.266h0.074c0.635-1.003,1.517-1.862,2.642-2.578
		c1.126-0.716,2.636-1.073,4.532-1.073h0.312l-0.146,4.238c-0.137-0.024-0.348-0.043-0.633-0.056
		c-0.289-0.014-0.494-0.02-0.615-0.02c-1.504,0-2.746,0.321-3.727,0.963c-0.979,0.645-1.792,1.504-2.438,2.578v12.623L95.734,42.585
		L95.734,42.585z"/>
	<path fill="#ABE1E2" d="M117.973,43.007c-1.859,0-3.565-0.297-5.119-0.89c-1.555-0.594-2.783-1.354-3.688-2.284l2.532-2.808
		c0.745,0.646,1.655,1.205,2.733,1.67c1.075,0.465,2.256,0.697,3.541,0.697c1.246,0,2.223-0.177,2.926-0.523
		c0.703-0.348,1.057-0.938,1.057-1.771c0-0.402-0.119-0.742-0.357-1.018s-0.561-0.514-0.964-0.716
		c-0.401-0.202-0.875-0.37-1.411-0.505c-0.539-0.135-1.107-0.275-1.707-0.422c-0.855-0.209-1.729-0.438-2.613-0.688
		c-0.889-0.251-1.694-0.601-2.422-1.046c-0.729-0.446-1.324-1.034-1.789-1.762c-0.465-0.729-0.697-1.666-0.697-2.816
		c0-0.881,0.184-1.68,0.551-2.395c0.366-0.715,0.874-1.332,1.521-1.846c0.647-0.514,1.426-0.914,2.33-1.202
		c0.904-0.287,1.908-0.431,3.01-0.431c1.908,0,3.492,0.257,4.752,0.771s2.404,1.199,3.432,2.055l-2.201,2.99
		c-0.38-0.295-0.802-0.571-1.267-0.836c-0.466-0.262-0.948-0.494-1.449-0.695c-0.502-0.202-1.004-0.355-1.505-0.469
		c-0.502-0.109-0.979-0.166-1.432-0.166c-1.271,0-2.152,0.193-2.644,0.578c-0.487,0.387-0.733,0.865-0.733,1.439
		c0,0.404,0.121,0.743,0.357,1.02c0.238,0.275,0.551,0.515,0.938,0.717c0.386,0.201,0.841,0.369,1.367,0.505
		c0.523,0.135,1.095,0.271,1.705,0.401c0.844,0.195,1.719,0.414,2.625,0.651c0.902,0.238,1.717,0.578,2.438,1.019
		c0.721,0.441,1.32,1.027,1.799,1.763s0.715,1.685,0.715,2.844c0,1.054-0.217,1.968-0.65,2.743
		c-0.435,0.775-1.032,1.416-1.797,1.918c-0.767,0.501-1.654,0.877-2.67,1.128C120.167,42.882,119.098,43.007,117.973,43.007z"/>
</g>
<g id="z4iC4r_13_">
	<g>
		
			<path fill="#FFFFFF" stroke="#FFFFFF" stroke-width="2" stroke-linecap="round" stroke-linejoin="round" stroke-miterlimit="10" d="
			M57.204,27.875c-0.291,0-0.512,0-0.732,0c-4.068,0-8.139,0.006-12.207-0.004c-2.902-0.006-5.068-1.699-5.752-4.515
			c-0.659-2.718-1.278-5.444-1.915-8.167c-0.282-1.212-0.565-2.424-0.866-3.719c0.832-0.164,1.57-0.309,2.367-0.466
			c0.272,1.12,0.537,2.175,0.786,3.232c0.659,2.786,1.297,5.576,1.974,8.358c0.478,1.962,1.658,2.861,3.668,2.861
			c3.959,0.002,7.918,0.001,11.877,0.001c0.26,0,0.52,0,0.801,0C57.204,26.292,57.204,27.023,57.204,27.875z M58.778,42.51
			c-0.281,0.021-0.438,0.02-0.59,0.047c-0.703,0.125-1.018-0.156-1.172-0.867c-0.744-3.455-1.549-6.896-2.309-10.35
			c-0.109-0.496-0.299-0.68-0.838-0.677c-3.781,0.026-7.562,0.026-11.344-0.001c-0.557-0.004-0.707,0.211-0.816,0.701
			c-0.791,3.559-1.607,7.113-2.436,10.664c-0.045,0.193-0.238,0.461-0.402,0.494c-0.375,0.07-0.775,0.021-1.193,0.021
			c0.02-0.229,0.018-0.346,0.042-0.451c0.905-3.99,1.812-7.982,2.723-11.975c0.196-0.857,0.337-0.943,1.336-0.943
			c4.299,0.003,8.598,0.008,12.896,0.008c1.014,0,1.11,0.066,1.328,1.023c0.682,2.986,1.359,5.979,2.036,8.966
			C58.284,40.26,58.521,41.348,58.778,42.51z"/>
		
			<path fill="#FFFFFF" stroke="#FFFFFF" stroke-width="2" stroke-linecap="round" stroke-linejoin="round" stroke-miterlimit="10" d="
			M57.204,27.875c0-0.852,0-1.583,0-2.417c-0.281,0-0.541,0-0.801,0c-3.959,0-7.918,0.001-11.877-0.001
			c-2.01,0-3.19-0.899-3.668-2.861c-0.677-2.782-1.314-5.572-1.974-8.358c-0.249-1.058-0.514-2.112-0.786-3.232
			c-0.797,0.157-1.535,0.302-2.367,0.466c0.301,1.295,0.584,2.507,0.866,3.719c0.637,2.723,1.256,5.449,1.915,8.167
			c0.684,2.815,2.85,4.509,5.752,4.515c4.068,0.01,8.139,0.004,12.207,0.004C56.692,27.875,56.913,27.875,57.204,27.875z"/>
		
			<path fill="#FFFFFF" stroke="#FFFFFF" stroke-width="2" stroke-linecap="round" stroke-linejoin="round" stroke-miterlimit="10" d="
			M58.778,42.51c-0.258-1.162-0.494-2.25-0.739-3.337c-0.677-2.989-1.354-5.978-2.036-8.966c-0.218-0.957-0.314-1.023-1.328-1.023
			c-4.298-0.002-8.597-0.004-12.896-0.008c-0.999,0-1.14,0.086-1.336,0.943c-0.911,3.99-1.817,7.982-2.723,11.975
			c-0.024,0.105-0.022,0.221-0.042,0.451c0.418,0,0.818,0.049,1.193-0.023c0.164-0.031,0.357-0.301,0.402-0.494
			c0.828-3.551,1.645-7.104,2.436-10.662c0.109-0.49,0.26-0.705,0.816-0.701c3.781,0.025,7.562,0.025,11.344,0.001
			c0.539-0.003,0.729,0.183,0.838,0.677c0.76,3.451,1.564,6.896,2.309,10.352c0.154,0.711,0.469,0.992,1.172,0.867
			C58.341,42.529,58.497,42.531,58.778,42.51z"/>
	</g>
</g>
</svg>
