<?xml version="1.0" encoding="utf-8"?>
<!-- Generator: Adobe Illustrator 16.0.0, SVG Export Plug-In . SVG Version: 6.00 Build 0)  -->
<!DOCTYPE svg PUBLIC "-//W3C//DTD SVG 1.1//EN" "http://www.w3.org/Graphics/SVG/1.1/DTD/svg11.dtd">
<svg version="1.1" id="Layer_1" xmlns="http://www.w3.org/2000/svg" xmlns:xlink="http://www.w3.org/1999/xlink" x="0px" y="0px"
	 width="139px" height="49.5px" viewBox="0 0 139 49.5" enable-background="new 0 0 139 49.5" xml:space="preserve">
<text transform="matrix(1 0 0 1 50.2549 19.4404)" fill="#FFFFFF" font-family="'BentonSans-LightItalic'" font-size="15.6266">musical</text>
<g opacity="0.9">
	<path fill="#ABE1E2" d="M23.72,43.007c-1.149,0-2.284-0.202-3.403-0.604c-1.119-0.402-2.116-1.023-2.99-1.861
		c-0.875-0.838-1.581-1.908-2.119-3.211c-0.539-1.305-0.808-2.871-0.808-4.706c0-1.896,0.287-3.501,0.862-4.815
		c0.575-1.313,1.327-2.389,2.257-3.221s1.963-1.428,3.101-1.789c1.138-0.36,2.257-0.541,3.357-0.541
		c1.224,0,2.294,0.156,3.211,0.468c0.918,0.312,1.694,0.737,2.33,1.275c0.636,0.538,1.175,1.159,1.615,1.86
		c0.44,0.703,0.812,1.44,1.119,2.213l-3.908,1.395c-0.783-2.227-2.264-3.34-4.44-3.34c-0.648,0-1.266,0.113-1.853,0.34
		c-0.588,0.229-1.102,0.598-1.542,1.109c-0.439,0.515-0.792,1.184-1.055,2.01c-0.263,0.825-0.395,1.838-0.395,3.036
		c0,2.129,0.413,3.759,1.238,4.892c0.826,1.131,2.003,1.695,3.532,1.695c1.052,0,1.954-0.229,2.706-0.679
		c0.753-0.452,1.404-1.384,1.954-2.789l3.835,1.396c-0.355,0.809-0.777,1.564-1.267,2.274c-0.489,0.709-1.076,1.327-1.761,1.854
		c-0.686,0.524-1.486,0.946-2.403,1.267C25.977,42.848,24.919,43.007,23.72,43.007z"/>
	<path fill="#ABE1E2" d="M68.653,42.879c-0.808,0-1.554-0.109-2.238-0.331c-0.686-0.22-1.278-0.544-1.78-0.972
		c-0.502-0.43-0.896-0.965-1.184-1.605c-0.287-0.643-0.431-1.373-0.431-2.191c0-1.075,0.238-2.066,0.715-2.973
		c0.478-0.906,1.242-1.701,2.294-2.387c1.052-0.686,2.397-1.271,4.036-1.761c1.642-0.489,3.621-0.875,5.945-1.156v-0.587
		c0-1.003-0.264-1.73-0.789-2.184c-0.525-0.455-1.352-0.681-2.478-0.681c-1.406,0-2.666,0.281-3.779,0.845
		c-1.113,0.562-2.092,1.182-2.936,1.854l-2.257-2.881c1.076-0.979,2.428-1.825,4.055-2.541c1.627-0.716,3.479-1.073,5.561-1.073
		c1.32,0,2.439,0.156,3.356,0.468c0.918,0.312,1.657,0.777,2.22,1.395c0.562,0.618,0.971,1.376,1.221,2.274
		c0.25,0.897,0.377,1.922,0.377,3.072v8.237c0,1.198,0.043,2.187,0.129,2.964c0.084,0.775,0.23,1.416,0.438,1.917h-4.66
		c-0.122-0.429-0.229-0.815-0.319-1.165c-0.092-0.35-0.139-0.811-0.139-1.386c-1.027,1.053-2.135,1.788-3.32,2.211
		C71.503,42.668,70.157,42.879,68.653,42.879z M70.341,39.318c1.199,0,2.263-0.207,3.192-0.623c0.929-0.416,1.755-0.973,2.479-1.67
		v-4.403c-2.777,0.38-4.882,0.915-6.312,1.604c-1.432,0.69-2.147,1.588-2.147,2.688c0,0.795,0.251,1.395,0.753,1.798
		C68.806,39.117,69.484,39.318,70.341,39.318z"/>
	<path fill="#ABE1E2" d="M85.717,42.585V22.642h4.66v19.943H85.717z"/>
	<path fill="#ABE1E2" d="M95.734,42.585V22.642h4.623v3.266h0.074c0.635-1.003,1.517-1.862,2.642-2.578
		c1.126-0.716,2.636-1.073,4.532-1.073h0.312l-0.146,4.238c-0.137-0.024-0.348-0.043-0.633-0.056
		c-0.289-0.014-0.494-0.02-0.615-0.02c-1.504,0-2.746,0.321-3.727,0.963c-0.979,0.645-1.792,1.504-2.438,2.578v12.623L95.734,42.585
		L95.734,42.585z"/>
	<path fill="#ABE1E2" d="M117.973,43.007c-1.859,0-3.565-0.297-5.119-0.89c-1.555-0.594-2.783-1.354-3.688-2.284l2.532-2.808
		c0.745,0.646,1.655,1.205,2.733,1.67c1.075,0.465,2.256,0.697,3.541,0.697c1.246,0,2.223-0.177,2.926-0.523
		c0.703-0.348,1.057-0.938,1.057-1.771c0-0.402-0.119-0.742-0.357-1.018s-0.561-0.514-0.964-0.716
		c-0.401-0.202-0.875-0.37-1.411-0.505c-0.539-0.135-1.107-0.275-1.707-0.422c-0.855-0.209-1.729-0.438-2.613-0.688
		c-0.889-0.251-1.694-0.601-2.422-1.046c-0.729-0.446-1.324-1.034-1.789-1.762c-0.465-0.729-0.697-1.666-0.697-2.816
		c0-0.881,0.184-1.68,0.551-2.395c0.366-0.715,0.874-1.332,1.521-1.846c0.647-0.514,1.426-0.914,2.33-1.202
		c0.904-0.287,1.908-0.431,3.01-0.431c1.908,0,3.492,0.257,4.752,0.771s2.404,1.199,3.432,2.055l-2.201,2.99
		c-0.38-0.295-0.802-0.571-1.267-0.836c-0.466-0.262-0.948-0.494-1.449-0.695c-0.502-0.202-1.004-0.355-1.505-0.469
		c-0.502-0.109-0.979-0.166-1.432-0.166c-1.271,0-2.152,0.193-2.644,0.578c-0.487,0.387-0.733,0.865-0.733,1.439
		c0,0.404,0.121,0.743,0.357,1.02c0.238,0.275,0.551,0.515,0.938,0.717c0.386,0.201,0.841,0.369,1.367,0.505
		c0.523,0.135,1.095,0.271,1.705,0.401c0.844,0.195,1.719,0.414,2.625,0.651c0.902,0.238,1.717,0.578,2.438,1.019
		c0.721,0.441,1.32,1.027,1.799,1.763s0.715,1.685,0.715,2.844c0,1.054-0.217,1.968-0.65,2.743
		c-0.435,0.775-1.032,1.416-1.797,1.918c-0.767,0.501-1.654,0.877-2.67,1.128C120.167,42.882,119.098,43.007,117.973,43.007z"/>
</g>
<g id="z4iC4r_13_">
	<g>
		
			<path fill="#FFFFFF" stroke="#FFFFFF" stroke-width="2" stroke-linecap="round" stroke-linejoin="round" stroke-miterlimit="10" d="
			M57.204,27.875c-0.291,0-0.512,0-0.732,0c-4.068,0-8.139,0.006-12.207-0.004c-2.902-0.006-5.068-1.699-5.752-4.515
			c-0.659-2.718-1.278-5.444-1.915-8.167c-0.282-1.212-0.565-2.424-0.866-3.719c0.832-0.164,1.57-0.309,2.367-0.466
			c0.272,1.12,0.537,2.175,0.786,3.232c0.659,2.786,1.297,5.576,1.974,8.358c0.478,1.962,1.658,2.861,3.668,2.861
			c3.959,0.002,7.918,0.001,11.877,0.001c0.26,0,0.52,0,0.801,0C57.204,26.292,57.204,27.023,57.204,27.875z M58.778,42.51
			c-0.281,0.021-0.438,0.02-0.59,0.047c-0.703,0.125-1.018-0.156-1.172-0.867c-0.744-3.455-1.549-6.896-2.309-10.35
			c-0.109-0.496-0.299-0.68-0.838-0.677c-3.781,0.026-7.562,0.026-11.344-0.001c-0.557-0.004-0.707,0.211-0.816,0.701
			c-0.791,3.559-1.607,7.113-2.436,10.664c-0.045,0.193-0.238,0.461-0.402,0.494c-0.375,0.07-0.775,0.021-1.193,0.021
			c0.02-0.229,0.018-0.346,0.042-0.451c0.905-3.99,1.812-7.982,2.723-11.975c0.196-0.857,0.337-0.943,1.336-0.943
			c4.299,0.003,8.598,0.008,12.896,0.008c1.014,0,1.11,0.066,1.328,1.023c0.682,2.986,1.359,5.979,2.036,8.966
			C58.284,40.26,58.521,41.348,58.778,42.51z"/>
		
			<path fill="#FFFFFF" stroke="#FFFFFF" stroke-width="2" stroke-linecap="round" stroke-linejoin="round" stroke-miterlimit="10" d="
			M57.204,27.875c0-0.852,0-1.583,0-2.417c-0.281,0-0.541,0-0.801,0c-3.959,0-7.918,0.001-11.877-0.001
			c-2.01,0-3.19-0.899-3.668-2.861c-0.677-2.782-1.314-5.572-1.974-8.358c-0.249-1.058-0.514-2.112-0.786-3.232
			c-0.797,0.157-1.535,0.302-2.367,0.466c0.301,1.295,0.584,2.507,0.866,3.719c0.637,2.723,1.256,5.449,1.915,8.167
			c0.684,2.815,2.85,4.509,5.752,4.515c4.068,0.01,8.139,0.004,12.207,0.004C56.692,27.875,56.913,27.875,57.204,27.875z"/>
		
			<path fill="#FFFFFF" stroke="#FFFFFF" stroke-width="2" stroke-linecap="round" stroke-linejoin="round" stroke-miterlimit="10" d="
			M58.778,42.51c-0.258-1.162-0.494-2.25-0.739-3.337c-0.677-2.989-1.354-5.978-2.036-8.966c-0.218-0.957-0.314-1.023-1.328-1.023
			c-4.298-0.002-8.597-0.004-12.896-0.008c-0.999,0-1.14,0.086-1.336,0.943c-0.911,3.99-1.817,7.982-2.723,11.975
			c-0.024,0.105-0.022,0.221-0.042,0.451c0.418,0,0.818,0.049,1.193-0.023c0.164-0.031,0.357-0.301,0.402-0.494
			c0.828-3.551,1.645-7.104,2.436-10.662c0.109-0.49,0.26-0.705,0.816-0.701c3.781,0.025,7.562,0.025,11.344,0.001
			c0.539-0.003,0.729,0.183,0.838,0.677c0.76,3.451,1.564,6.896,2.309,10.352c0.154,0.711,0.469,0.992,1.172,0.867
			C58.341,42.529,58.497,42.531,58.778,42.51z"/>
	</g>
</g>
</svg>
